<?xml version="1.0" encoding="utf-8"?>
<!-- Generator: Adobe Illustrator 26.0.3, SVG Export Plug-In . SVG Version: 6.00 Build 0)  -->
<svg version="1.0" id="katman_1" xmlns="http://www.w3.org/2000/svg" xmlns:xlink="http://www.w3.org/1999/xlink" x="0px" y="0px"
	 viewBox="0 0 600 450" style="enable-background:new 0 0 600 450;" xml:space="preserve">
<style type="text/css">
	.st0{fill:#3D474D;}
	.st1{opacity:0.3;fill-rule:evenodd;clip-rule:evenodd;fill:#3D474D;enable-background:new    ;}
	.st2{fill-rule:evenodd;clip-rule:evenodd;fill:#45A1DA;}
	.st3{fill-rule:evenodd;clip-rule:evenodd;fill:#FFFFFF;}
</style>
<g>
	<path class="st0" d="M328.2,208.5H309v32c0,2,0,3.9,0.1,5.9c0.1,1.9,0.5,3.7,1.1,5.2s1.6,2.8,3,3.7s3.3,1.4,5.9,1.4
		c1.6,0,3.2-0.1,4.9-0.4c1.7-0.3,3.2-0.8,4.6-1.6v12.2c-1.6,0.9-3.6,1.5-6.2,1.9c-2.5,0.3-4.5,0.5-5.9,0.5c-5.2,0-9.2-0.7-12-2.2
		c-2.8-1.4-4.9-3.3-6.3-5.6s-2.1-4.8-2.4-7.7s-0.4-5.7-0.4-8.6v-36.8h-15.5v-11.6h15.5v-19.8H309v19.8h19.2V208.5z M339,205.6
		c3.8-3.5,8.1-6.1,13.1-7.8c5-1.7,9.9-2.6,14.9-2.6c5.2,0,9.6,0.6,13.3,1.9s6.8,3,9.2,5.2c2.4,2.2,4.1,4.7,5.3,7.5
		c1.1,2.8,1.7,5.8,1.7,8.9v36c0,2.5,0,4.8,0.1,6.8c0.1,2.1,0.2,4.1,0.4,6h-11.9c-0.3-3.6-0.4-7.1-0.4-10.7h-0.3
		c-3,4.6-6.5,7.8-10.6,9.7c-4.1,1.9-8.8,2.8-14.1,2.8c-3.3,0-6.4-0.4-9.4-1.3c-3-0.9-5.6-2.2-7.8-4c-2.2-1.8-4-4-5.3-6.6
		c-1.3-2.6-1.9-5.7-1.9-9.2c0-4.6,1-8.4,3.1-11.5s4.8-5.6,8.3-7.5c3.5-1.9,7.6-3.3,12.4-4.2c4.7-0.8,9.7-1.3,15.1-1.3h9.8v-3
		c0-1.8-0.3-3.6-1-5.4c-0.7-1.8-1.7-3.4-3.1-4.8c-1.4-1.4-3.1-2.6-5.2-3.4c-2.1-0.8-4.6-1.3-7.4-1.3c-2.6,0-4.8,0.2-6.8,0.7
		c-1.9,0.5-3.7,1.1-5.3,1.9c-1.6,0.7-3,1.6-4.3,2.6c-1.3,1-2.5,1.9-3.7,2.8L339,205.6z M376.8,233.5c-3.2,0-6.4,0.2-9.7,0.5
		s-6.4,1-9.1,2c-2.7,1-5,2.4-6.7,4.2s-2.6,4.1-2.6,6.8c0,4.1,1.4,7,4.1,8.8c2.7,1.8,6.4,2.7,11.1,2.7c3.7,0,6.8-0.6,9.4-1.9
		c2.6-1.2,4.7-2.9,6.3-4.8c1.6-2,2.7-4.2,3.4-6.6c0.7-2.4,1-4.8,1-7.2v-4.5H376.8z M446.7,214.6c-1.6-2-3.5-3.6-5.9-5
		c-2.3-1.3-5.2-2-8.6-2c-3.2,0-5.9,0.7-8.3,2c-2.3,1.3-3.5,3.3-3.5,5.9c0,2.1,0.7,3.8,2,5.1c1.3,1.3,2.9,2.3,4.8,3.1
		c1.8,0.8,3.8,1.4,5.9,1.8c2.1,0.4,3.9,0.7,5.4,1c2.9,0.7,5.6,1.5,8.1,2.5c2.5,1,4.7,2.3,6.5,3.9c1.8,1.6,3.3,3.5,4.3,5.8
		c1,2.3,1.6,5.1,1.6,8.3c0,4-0.8,7.4-2.5,10.2c-1.7,2.8-3.9,5.1-6.5,6.9c-2.7,1.8-5.7,3.1-9.2,3.9c-3.4,0.8-6.9,1.2-10.3,1.2
		c-5.9,0-11-0.9-15.4-2.7s-8.4-5.1-11.8-9.8l10.1-8.3c2.2,2.2,4.6,4.1,7.3,5.8c2.7,1.7,6,2.5,9.8,2.5c1.7,0,3.4-0.2,5.1-0.5
		c1.7-0.3,3.3-0.9,4.6-1.6c1.3-0.7,2.4-1.7,3.3-2.8s1.3-2.5,1.3-3.9c0-2-0.6-3.6-1.9-4.9c-1.2-1.3-2.7-2.3-4.5-3.1
		c-1.7-0.7-3.6-1.3-5.5-1.8c-1.9-0.4-3.6-0.8-5.1-1.1c-2.9-0.7-5.6-1.5-8.2-2.4s-4.9-2.1-6.8-3.6c-2-1.5-3.6-3.4-4.8-5.7
		c-1.2-2.3-1.8-5.1-1.8-8.5c0-3.7,0.8-6.9,2.3-9.6c1.5-2.7,3.6-5,6.1-6.8c2.5-1.8,5.4-3.1,8.6-4s6.5-1.3,9.7-1.3
		c4.8,0,9.3,0.9,13.7,2.7c4.4,1.8,7.8,4.8,10.4,8.9L446.7,214.6z M468.5,154.9h13.4v72.6l30.4-30.5h18.6l-32.9,32l35.7,38.4h-19.1
		l-32.7-36.6v36.6h-13.4V154.9z"/>
	<path class="st1" d="M286,147h5.3c0.3,0,0.6,0.2,0.6,0.6v2.4c0.3-0.4,0.6-0.8,1-1.2c0.4-0.4,0.8-0.8,1.4-1.1
		c0.5-0.3,1.1-0.6,1.8-0.8c0.7-0.2,1.4-0.3,2.2-0.3c1.5,0,2.8,0.3,4,0.9c1.2,0.6,2,1.6,2.6,2.9c0.8-1.4,1.7-2.4,2.8-3
		c1.1-0.6,2.4-0.9,4-0.9c1.4,0,2.7,0.2,3.6,0.7c1,0.5,1.8,1.2,2.3,2c0.6,0.8,1,1.8,1.2,3c0.3,1.1,0.4,2.4,0.4,3.7v12.3
		c0,0.3-0.2,0.6-0.6,0.6h-5.5c-0.3,0-0.6-0.2-0.6-0.6v-12.1c0-1-0.2-1.9-0.6-2.6c-0.4-0.7-1.2-1.1-2.3-1.1c-0.8,0-1.4,0.1-1.9,0.4
		c-0.5,0.3-0.9,0.6-1.2,1c-0.3,0.4-0.5,1-0.7,1.6s-0.2,1.2-0.2,1.9v10.9c0,0.3-0.2,0.6-0.6,0.6h-5.5c-0.3,0-0.6-0.2-0.6-0.6v-10.9
		c0-0.4,0-0.9,0-1.4c0-0.6-0.1-1.1-0.3-1.6s-0.5-0.9-0.9-1.3c-0.4-0.4-1-0.5-1.7-0.5c-0.9,0-1.5,0.2-2.1,0.5s-0.9,0.7-1.2,1.2
		s-0.5,1.1-0.6,1.8c-0.1,0.7-0.1,1.3-0.1,2.1v10.2c0,0.3-0.2,0.6-0.6,0.6H286c-0.3,0-0.6-0.2-0.6-0.6v-20.6
		C285.4,147.3,285.7,147,286,147z M342.5,165.4c-0.3,0.3-0.5,0.6-0.7,0.7c-0.9,0.8-1.8,1.5-3,2c-1.6,0.7-3.3,1.1-5,1.1
		c-1.7,0-3.2-0.3-4.7-0.8s-2.7-1.3-3.8-2.3c-1.1-1-1.9-2.2-2.5-3.6c-0.6-1.4-0.9-3-0.9-4.7s0.3-3.3,0.9-4.7c0.6-1.4,1.5-2.6,2.5-3.6
		c1.1-1,2.3-1.8,3.8-2.3c1.5-0.5,3-0.8,4.7-0.8c1.5,0,2.9,0.3,4.2,0.8c1.3,0.5,2.3,1.3,3.2,2.3c0.9,1,1.5,2.2,2,3.6s0.7,3,0.7,4.7
		v1.4c0,0.4-0.3,0.7-0.7,0.7h-14.6c0.3,1.3,0.8,2.3,1.7,3.1c0.9,0.8,2,1.1,3.3,1.1c1.1,0,2-0.2,2.8-0.7c0.5-0.3,0.9-0.7,1.3-1.1
		c0.1-0.1,0.2-0.2,0.4-0.4l0,0c0.2-0.2,0.5-0.3,0.8-0.1l3.7,2.8C342.7,164.8,342.7,165.1,342.5,165.4
		C342.5,165.4,342.5,165.4,342.5,165.4z M412.7,165.4c-0.3,0.3-0.5,0.6-0.7,0.7c-0.9,0.8-1.8,1.5-3,2c-1.6,0.7-3.3,1.1-5,1.1
		c-1.7,0-3.2-0.3-4.7-0.8s-2.7-1.3-3.8-2.3c-1.1-1-1.9-2.2-2.5-3.6c-0.6-1.4-0.9-3-0.9-4.7s0.3-3.3,0.9-4.7s1.5-2.6,2.5-3.6
		c1.1-1,2.3-1.8,3.8-2.3c1.5-0.5,3-0.8,4.7-0.8c1.5,0,2.9,0.3,4.2,0.8c1.3,0.5,2.3,1.3,3.2,2.3c0.9,1,1.5,2.2,2,3.6
		c0.5,1.4,0.7,3,0.7,4.7v1.4c0,0.4-0.3,0.7-0.7,0.7h-14.6c0.3,1.3,0.8,2.3,1.7,3.1c0.9,0.8,2,1.1,3.3,1.1c1.1,0,2-0.2,2.8-0.7
		c0.5-0.3,0.9-0.7,1.3-1.1c0.1-0.1,0.2-0.2,0.4-0.4l0,0c0.2-0.2,0.5-0.3,0.8-0.1l3.7,2.8C412.9,164.8,412.9,165.1,412.7,165.4
		C412.7,165.4,412.7,165.4,412.7,165.4z M337.3,155.4c0-1.1-0.3-2.1-1.1-2.9s-1.8-1.2-3-1.2c-0.7,0-1.4,0.1-1.9,0.4
		c-0.6,0.2-1,0.5-1.4,0.9s-0.7,0.8-0.9,1.3c-0.2,0.5-0.3,1-0.4,1.5H337.3z M347.3,147h5.5c0.3,0,0.6,0.2,0.6,0.6v20.6
		c0,0.3-0.2,0.6-0.6,0.6h-5.5c-0.3,0-0.6-0.2-0.6-0.6v-20.6C346.7,147.3,347,147,347.3,147z M350.1,145c-2.1,0-3.9-1.7-3.9-3.9
		s1.7-3.9,3.9-3.9c2.1,0,3.9,1.7,3.9,3.9S352.2,145,350.1,145z M369,153.4c-1-1.2-2.3-1.8-3.8-1.8c-0.6,0-1.1,0.1-1.6,0.4
		c-0.5,0.3-0.8,0.7-0.8,1.4c0,0.5,0.3,0.9,0.8,1.2c0.5,0.3,1.2,0.5,2.1,0.7c0.8,0.2,1.7,0.4,2.7,0.6c1,0.2,1.9,0.6,2.7,1
		c0.8,0.5,1.5,1.1,2.1,1.9c0.5,0.8,0.8,1.9,0.8,3.3c0,1.4-0.3,2.6-0.9,3.5s-1.4,1.6-2.3,2.2c-0.9,0.6-2,0.9-3.2,1.2
		c-1.2,0.2-2.3,0.3-3.5,0.3c-1.5,0-3-0.2-4.6-0.6s-2.8-1.2-3.9-2.3l4-4.5c0.6,0.8,1.3,1.4,2.1,1.8c0.8,0.4,1.6,0.6,2.6,0.6
		c0.8,0,1.5-0.1,2.1-0.3c0.6-0.2,0.9-0.6,0.9-1.2c0-0.6-0.3-1-0.8-1.3c-0.5-0.3-1.2-0.5-2.1-0.7c-0.8-0.2-1.7-0.4-2.7-0.6
		s-1.9-0.6-2.7-1s-1.5-1.1-2.1-1.9c-0.5-0.8-0.8-1.9-0.8-3.3c0-1.3,0.3-2.4,0.8-3.3c0.5-0.9,1.2-1.7,2-2.3c0.8-0.6,1.8-1,2.9-1.3
		c1.1-0.3,2.2-0.4,3.3-0.4c1.4,0,2.8,0.2,4.3,0.6c1.4,0.4,2.7,1.2,3.7,2.2L369,153.4z M390.1,152.4h-5.3v7.2c0,0.6,0,1.1,0.1,1.6
		s0.2,0.9,0.4,1.3c0.2,0.4,0.5,0.6,1,0.8c0.4,0.2,1,0.3,1.7,0.3c0.4,0,0.8,0,1.4-0.1c0.2,0,0.4-0.1,0.6-0.1l0,0
		c0.3-0.1,0.6,0,0.7,0.3c0,0.1,0,0.1,0,0.2l0,4.3c0,0.2-0.2,0.5-0.4,0.5c-0.8,0.2-1.4,0.4-1.9,0.4c-0.8,0.1-1.6,0.1-2.3,0.1
		c-1.1,0-2.2-0.1-3.1-0.4s-1.8-0.6-2.5-1.1s-1.3-1.2-1.7-2s-0.6-1.8-0.6-3v-10.3h-3.7c-0.3,0-0.6-0.2-0.6-0.6v-4.3
		c0-0.3,0.2-0.6,0.6-0.6h3.7v-5.9c0-0.3,0.2-0.6,0.6-0.6h5.5c0.3,0,0.6,0.2,0.6,0.6v5.9h5.3c0.3,0,0.6,0.2,0.6,0.6v4.3
		C390.6,152.1,390.4,152.4,390.1,152.4z M407.4,155.4c0-1.1-0.3-2.1-1.1-2.9c-0.8-0.8-1.8-1.2-3-1.2c-0.7,0-1.4,0.1-1.9,0.4
		c-0.6,0.2-1,0.5-1.4,0.9s-0.7,0.8-0.9,1.3c-0.2,0.5-0.3,1-0.4,1.5H407.4z M417.3,147h5.5c0.3,0,0.6,0.2,0.6,0.6v2.9h0.1
		c0.7-1.3,1.5-2.3,2.5-3c1-0.7,2.2-1,3.7-1c0.4,0,0.8,0,1.1,0c0.2,0,0.4,0,0.6,0.1l0,0c0.3,0,0.5,0.3,0.5,0.5l0,4.9
		c0,0.3-0.2,0.6-0.6,0.6c0,0-0.1,0-0.1,0c-0.3-0.1-0.5-0.1-0.7-0.2c-0.5-0.1-0.9-0.1-1.4-0.1c-1.3,0-2.3,0.2-3,0.5
		c-0.7,0.4-1.3,0.9-1.7,1.5c-0.4,0.6-0.7,1.4-0.8,2.3c-0.1,0.9-0.2,1.9-0.2,2.9v8.5c0,0.3-0.2,0.6-0.6,0.6h-5.5
		c-0.3,0-0.6-0.2-0.6-0.6v-20.6C416.8,147.3,417,147,417.3,147z"/>
	<g transform="translate(0 2)">
		<path class="st2" d="M184.4,143.5c61.7,16.5,72.6,46.3,58.1,100.7c-14.6,54.4-38.9,74.7-100.6,58.2s-72.6-46.3-58.1-100.7
			S122.8,127,184.4,143.5z"/>
		<path class="st3" d="M147.1,245.4l55.7-55.7c2.9-2.9,7.6-2.9,10.5,0c2.9,2.9,2.9,7.6,0,10.5l-61,61c-2.9,2.9-7.6,2.9-10.5,0
			l-24.5-24.5c-2.9-2.9-2.9-7.6,0-10.5s7.6-2.9,10.5,0L147.1,245.4z"/>
	</g>
</g>
</svg>
